<?xml version="1.0" encoding="utf-8"?>
<!-- Generator: Adobe Illustrator 16.0.0, SVG Export Plug-In . SVG Version: 6.00 Build 0)  -->
<!DOCTYPE svg PUBLIC "-//W3C//DTD SVG 1.1//EN" "http://www.w3.org/Graphics/SVG/1.1/DTD/svg11.dtd">
<svg version="1.1" xmlns="http://www.w3.org/2000/svg" xmlns:xlink="http://www.w3.org/1999/xlink" x="0px" y="0px" width="750px"
	 height="500px" viewBox="0 0 750 500" enable-background="new 0 0 750 500" xml:space="preserve">
<g id="Background_Complete">
</g>
<g id="Background_Simple" display="none">
	<path display="inline" fill="#EBEBEB" d="M190.46,144.704c-6.078,9.239-13.784,23.021-16.273,33.796
		c-7.877,34.097-6.735,56.086,6.228,86.148c9,20.871,22.429,31.724,37.371,48.851c11.902,13.642,29.694,26.813,45.216,36.131
		c22.487,13.498,43.256,23.495,68.325,31.202c31.31,9.626,64.688,9.564,97.43,8.604c37.2-1.093,76.053-3.727,107.996-22.822
		c31.699-18.95,53.303-53.832,56.145-90.654c1.532-19.854-2.509-40.853-15.011-56.351c-11.783-14.608-30.045-22.982-48.607-25.757
		c-18.562-2.776-37.525-0.422-55.906,3.37c-21.029,4.338-43.291,10.488-63.41,2.988c-25.985-9.687-38.789-38.159-57.805-58.343
		c-21.306-22.614-52.613-35.441-83.66-34.278s-58.474,12.956-78.027,37.1L190.46,144.704z"/>
</g>
<g id="Floor">
</g>
<g id="Screens">
</g>
<g id="Character">
</g>
<g id="Plants">
</g>
<g id="Lamp">
	<g>
		<g>
			<polygon fill="#263238" points="410.856,222.716 281.64,222.716 291.191,130.669 421.503,130.669 			"/>
		</g>
		<g>
			<polygon fill="#455A64" points="404.277,222.716 275.062,222.716 284.612,130.669 414.924,130.669 			"/>
		</g>
		<g>
			<polygon fill="#F5F5F5" points="399.485,218.547 279.584,218.547 288.447,133.136 409.366,133.136 			"/>
		</g>
	</g>
	<g>
		<g>
			<path fill="#263238" d="M292.579,204.304c-0.167-0.017,1.023-12.867,2.656-28.696c1.634-15.835,3.094-28.655,3.26-28.638
				c0.167,0.018-1.022,12.864-2.657,28.7C294.205,191.499,292.746,204.322,292.579,204.304z"/>
		</g>
	</g>
	<g>
		<g>
			<ellipse fill="#263238" cx="308.392" cy="149.826" rx="6.019" ry="0.303"/>
		</g>
	</g>
	<g>
		<g>
			<ellipse fill="#F04F20" cx="341.649" cy="149.826" rx="23.974" ry="0.303"/>
		</g>
	</g>
	<g>
		<g>
			<ellipse fill="#263238" cx="306.973" cy="180.18" rx="6.019" ry="0.303"/>
		</g>
	</g>
	<g>
		<g>
			<ellipse fill="#F04F20" cx="340.23" cy="180.18" rx="23.974" ry="0.303"/>
		</g>
	</g>
	<g>
		<g>
			<ellipse fill="#F04F20" cx="323.898" cy="194.171" rx="23.974" ry="0.304"/>
		</g>
	</g>
	<g>
		<g>
			<ellipse fill="#F04F20" cx="311.248" cy="158.396" rx="8.467" ry="0.304"/>
		</g>
	</g>
	<g>
		<g>
			<ellipse fill="#F04F20" cx="310.817" cy="170.959" rx="8.467" ry="0.303"/>
		</g>
	</g>
	<g>
		<g>
			<ellipse fill="#F04F20" cx="325.134" cy="188.914" rx="8.468" ry="0.304"/>
		</g>
	</g>
	<g>
		<g>
			<ellipse fill="#263238" cx="359.691" cy="158.396" rx="21.632" ry="0.304"/>
		</g>
	</g>
	<g>
		<g>
			<ellipse fill="#263238" cx="346.339" cy="171.687" rx="21.632" ry="0.304"/>
		</g>
	</g>
	<g>
		<g>
			<ellipse fill="#263238" cx="361.227" cy="188.914" rx="21.633" ry="0.304"/>
		</g>
	</g>
	<g>
		<g>
			<ellipse fill="#263238" cx="321.724" cy="204.304" rx="21.632" ry="0.304"/>
		</g>
	</g>
	<g>
		<g>
			<path fill="#263238" d="M391.202,204.304c0,0.168-9.688,0.304-21.632,0.304c-11.95,0-21.633-0.135-21.633-0.304
				c0-0.167,9.683-0.303,21.633-0.303C381.514,204.001,391.202,204.136,391.202,204.304z"/>
		</g>
	</g>
	<g>
		<g>
			<path fill="#263238" d="M343.353,209.311c0,0.167-9.686,0.304-21.631,0.304c-11.95,0-21.633-0.136-21.633-0.304
				c0-0.167,9.683-0.304,21.633-0.304C333.667,209.007,343.353,209.144,343.353,209.311z"/>
		</g>
	</g>
	<g>
		<g>
			<ellipse fill="#263238" cx="323.825" cy="162.003" rx="21.632" ry="0.303"/>
		</g>
	</g>
	<g>
		<g>
			<ellipse fill="#455A64" cx="328.348" cy="158.443" rx="5.572" ry="0.303"/>
		</g>
	</g>
	<g>
		<g>
			<ellipse fill="#455A64" cx="306.003" cy="184.304" rx="5.572" ry="0.303"/>
		</g>
	</g>
	<g>
		<g>
			<ellipse fill="#455A64" cx="305.74" cy="188.914" rx="5.572" ry="0.304"/>
		</g>
	</g>
	<g>
		<g>
			<path fill="#263238" d="M407.86,142.259c0,0.167-26.965,0.303-60.22,0.303c-33.267,0-60.227-0.136-60.227-0.303
				c0-0.167,26.959-0.303,60.227-0.303C380.895,141.956,407.86,142.092,407.86,142.259z"/>
		</g>
	</g>
	<g>
		<circle fill="#FFFFFF" cx="295.537" cy="138.187" r="1.427"/>
	</g>
	<g>
		<circle fill="#FFFFFF" cx="301.667" cy="138.187" r="1.427"/>
	</g>
	<g>
		<circle fill="#FFFFFF" cx="307.796" cy="138.187" r="1.427"/>
	</g>
	<g>
		<g>
			<polygon fill="#263238" points="580.605,225.508 444.68,225.508 454.726,128.683 591.806,128.683 			"/>
		</g>
		<g>
			<polygon fill="#455A64" points="573.685,225.508 437.76,225.508 447.807,128.683 584.886,128.683 			"/>
		</g>
		<g>
			<polygon fill="#EBEBEB" points="568.645,221.123 442.517,221.123 451.839,131.277 579.038,131.277 			"/>
		</g>
	</g>
	<g>
		<g>
			<path fill="#263238" d="M456.257,204.786c-0.166-0.018,1.093-13.534,2.811-30.186c1.72-16.658,3.247-30.143,3.415-30.126
				c0.166,0.018-1.093,13.531-2.812,30.188C457.953,191.314,456.425,204.802,456.257,204.786z"/>
		</g>
	</g>
	<g>
		<g>
			<ellipse fill="#263238" cx="472.892" cy="147.479" rx="6.332" ry="0.304"/>
		</g>
	</g>
	<g>
		<g>
			<ellipse fill="#F04F20" cx="507.876" cy="147.479" rx="25.219" ry="0.304"/>
		</g>
	</g>
	<g>
		<g>
			<ellipse fill="#263238" cx="471.399" cy="179.408" rx="6.331" ry="0.303"/>
		</g>
	</g>
	<g>
		<g>
			<path fill="#F04F20" d="M531.602,179.408c0,0.167-11.291,0.303-25.217,0.303c-13.932,0-25.221-0.136-25.221-0.303
				c0-0.167,11.289-0.303,25.221-0.303C520.311,179.105,531.602,179.241,531.602,179.408z"/>
		</g>
	</g>
	<g>
		<g>
			<ellipse fill="#F04F20" cx="489.204" cy="194.127" rx="25.219" ry="0.303"/>
		</g>
	</g>
	<g>
		<g>
			<ellipse fill="#F04F20" cx="475.897" cy="156.494" rx="8.907" ry="0.303"/>
		</g>
	</g>
	<g>
		<g>
			<ellipse fill="#F04F20" cx="475.443" cy="169.709" rx="8.907" ry="0.303"/>
		</g>
	</g>
	<g>
		<g>
			<ellipse fill="#F04F20" cx="490.503" cy="188.597" rx="8.908" ry="0.303"/>
		</g>
	</g>
	<g>
		<g>
			<ellipse fill="#263238" cx="526.854" cy="156.494" rx="22.755" ry="0.303"/>
		</g>
	</g>
	<g>
		<g>
			<ellipse fill="#263238" cx="512.81" cy="170.476" rx="22.755" ry="0.303"/>
		</g>
	</g>
	<g>
		<g>
			<ellipse fill="#263238" cx="528.47" cy="188.597" rx="22.756" ry="0.303"/>
		</g>
	</g>
	<g>
		<g>
			<ellipse fill="#263238" cx="486.917" cy="204.786" rx="22.756" ry="0.303"/>
		</g>
	</g>
	<g>
		<g>
			<ellipse fill="#263238" cx="537.245" cy="204.786" rx="22.755" ry="0.303"/>
		</g>
	</g>
	<g>
		<g>
			<ellipse fill="#263238" cx="486.913" cy="210.052" rx="22.755" ry="0.304"/>
		</g>
	</g>
	<g>
		<g>
			<ellipse fill="#263238" cx="489.127" cy="160.288" rx="22.756" ry="0.303"/>
		</g>
	</g>
	<g>
		<g>
			<ellipse fill="#455A64" cx="493.884" cy="156.543" rx="5.861" ry="0.304"/>
		</g>
	</g>
	<g>
		<g>
			<ellipse fill="#455A64" cx="470.379" cy="183.748" rx="5.861" ry="0.303"/>
		</g>
	</g>
	<g>
		<g>
			<ellipse fill="#455A64" cx="470.102" cy="188.597" rx="5.861" ry="0.303"/>
		</g>
	</g>
	<g>
		<g>
			<path fill="#263238" d="M577.525,139.519c0,0.168-28.365,0.304-63.347,0.304c-34.995,0-63.354-0.136-63.354-0.304
				c0-0.167,28.359-0.303,63.354-0.303C549.16,139.216,577.525,139.352,577.525,139.519z"/>
		</g>
	</g>
	<g>
		<circle fill="#FFFFFF" cx="459.37" cy="135.234" r="1.501"/>
	</g>
	<g>
		<circle fill="#FFFFFF" cx="465.818" cy="135.234" r="1.501"/>
	</g>
	<g>
		<circle fill="#FFFFFF" cx="472.266" cy="135.234" r="1.501"/>
	</g>
	<g>
		<g>
			<g>
				<polygon fill="#263238" points="503.046,110.887 373.249,110.887 382.842,18.425 513.743,18.425 				"/>
			</g>
			<g>
				<polygon fill="#455A64" points="496.439,110.887 366.64,110.887 376.235,18.425 507.134,18.425 				"/>
			</g>
			<g>
				<polygon fill="#FAFAFA" points="491.626,106.7 371.184,106.7 380.086,20.903 501.55,20.903 				"/>
			</g>
		</g>
		<g>
			<g>
				<g>
					<path fill="#263238" d="M384.422,92.301c-0.166-0.018,1.029-12.925,2.67-28.826c1.643-15.907,3.107-28.784,3.275-28.767
						c0.166,0.017-1.029,12.922-2.671,28.829C386.055,79.438,384.589,92.318,384.422,92.301z"/>
				</g>
			</g>
			<g>
				<g>
					<ellipse fill="#263238" cx="400.307" cy="37.578" rx="6.046" ry="0.303"/>
				</g>
			</g>
			<g>
				<g>
					<ellipse fill="#E8505B" cx="433.715" cy="37.578" rx="24.083" ry="0.303"/>
				</g>
			</g>
			<g>
				<g>
					<ellipse fill="#263238" cx="398.881" cy="68.068" rx="6.047" ry="0.303"/>
				</g>
			</g>
			<g>
				<g>
					<ellipse fill="#E8505B" cx="432.289" cy="68.068" rx="24.083" ry="0.303"/>
				</g>
			</g>
			<g>
				<g>
					<ellipse fill="#E8505B" cx="415.883" cy="82.124" rx="24.082" ry="0.303"/>
				</g>
			</g>
			<g>
				<g>
					<ellipse fill="#E8505B" cx="403.176" cy="46.186" rx="8.505" ry="0.303"/>
				</g>
			</g>
			<g>
				<g>
					<ellipse fill="#E8505B" cx="402.743" cy="58.806" rx="8.505" ry="0.303"/>
				</g>
			</g>
			<g>
				<g>
					<ellipse fill="#E8505B" cx="417.125" cy="76.842" rx="8.506" ry="0.303"/>
				</g>
			</g>
			<g>
				<g>
					<ellipse fill="#263238" cx="451.837" cy="46.186" rx="21.73" ry="0.303"/>
				</g>
			</g>
			<g>
				<g>
					<ellipse fill="#263238" cx="438.425" cy="59.537" rx="21.729" ry="0.303"/>
				</g>
			</g>
			<g>
				<g>
					<ellipse fill="#263238" cx="453.38" cy="76.842" rx="21.73" ry="0.303"/>
				</g>
			</g>
			<g>
				<g>
					<ellipse fill="#263238" cx="413.699" cy="92.301" rx="21.73" ry="0.303"/>
				</g>
			</g>
			<g>
				<g>
					<path fill="#263238" d="M483.49,92.301c0,0.167-9.73,0.303-21.729,0.303c-12.004,0-21.731-0.136-21.731-0.303
						c0-0.167,9.728-0.304,21.731-0.304C473.759,91.998,483.49,92.134,483.49,92.301z"/>
				</g>
			</g>
			<g>
				<g>
					<ellipse fill="#263238" cx="413.696" cy="97.331" rx="21.729" ry="0.303"/>
				</g>
			</g>
			<g>
				<g>
					<path fill="#263238" d="M437.541,49.81c0,0.167-9.73,0.303-21.729,0.303c-12.004,0-21.731-0.136-21.731-0.303
						c0-0.168,9.728-0.304,21.731-0.304C427.81,49.506,437.541,49.642,437.541,49.81z"/>
				</g>
			</g>
			<g>
				<g>
					<ellipse fill="#455A64" cx="420.354" cy="46.233" rx="5.597" ry="0.304"/>
				</g>
			</g>
			<g>
				<g>
					<ellipse fill="#455A64" cx="397.908" cy="72.211" rx="5.597" ry="0.303"/>
				</g>
			</g>
			<g>
				<g>
					<ellipse fill="#455A64" cx="397.644" cy="76.842" rx="5.597" ry="0.303"/>
				</g>
			</g>
			<g>
				<g>
					<path fill="#263238" d="M500.225,29.977c0,0.167-27.088,0.304-60.493,0.304c-33.417,0-60.499-0.136-60.499-0.304
						s27.082-0.303,60.499-0.303C473.137,29.673,500.225,29.809,500.225,29.977z"/>
				</g>
			</g>
			<g>
				<circle fill="#FFFFFF" cx="387.395" cy="25.885" r="1.434"/>
			</g>
			<g>
				<circle fill="#FFFFFF" cx="393.551" cy="25.885" r="1.434"/>
			</g>
			<g>
				<circle fill="#FFFFFF" cx="399.709" cy="25.885" r="1.434"/>
			</g>
		</g>
	</g>
	<g>
		<g>
			<path fill="#7DB800" d="M206.512,233.068c1.757,1.02,2.919,2.89,3.38,4.869c0.461,1.979,0.281,4.06-0.181,6.039
				c-0.894,3.829-3.556,7.487-6.291,10.31c-2.934-3.233-3.104-8.295-3.029-10.868C200.509,239.351,203.193,232.073,206.512,233.068"
				/>
		</g>
	</g>
	<g>
		<g>
			<path fill="#7DB800" d="M206.47,261.131c-0.267-2.254,0.927-4.552,2.785-5.855c1.859-1.303,4.284-1.662,6.512-1.228
				c1.03,0.2,2.118,0.635,2.612,1.561c0.463,0.864,0.271,1.974-0.282,2.785c-0.552,0.81-1.409,1.364-2.295,1.786
				C212.764,261.625,209.558,262.466,206.47,261.131"/>
		</g>
	</g>
	<g>
		<g>
			<g>
				<path fill="#263238" d="M201.555,269.654c-0.049-0.02,0.198-0.976,0.738-2.492c0.271-0.759,0.707-1.641,1.293-2.529
					c0.589-0.882,1.218-1.867,2.035-2.806c1.61-1.888,3.554-3.141,5.076-3.698c0.761-0.287,1.408-0.416,1.853-0.486
					c0.45-0.053,0.699-0.059,0.702-0.03c0.014,0.08-0.983,0.183-2.437,0.805c-1.448,0.617-3.293,1.862-4.861,3.699
					c-0.789,0.903-1.427,1.879-2.029,2.741c-0.597,0.864-1.038,1.686-1.342,2.421C201.975,268.747,201.619,269.677,201.555,269.654z
					"/>
			</g>
		</g>
	</g>
	<g>
		<g>
			<g>
				<path fill="#263238" d="M204.958,238.792c0.03,0.002,0.021,0.47-0.022,1.314c-0.043,0.845-0.121,2.065-0.231,3.573
					c-0.221,3.014-0.572,7.175-1.072,11.76c-0.502,4.587-1.073,8.726-1.549,11.712c-0.238,1.492-0.444,2.698-0.604,3.528
					c-0.158,0.83-0.259,1.288-0.29,1.282c-0.03-0.005,0.015-0.47,0.12-1.309c0.121-0.916,0.277-2.109,0.465-3.547
					c0.396-2.994,0.917-7.133,1.418-11.715c0.465-4.545,0.885-8.659,1.2-11.74c0.149-1.442,0.274-2.64,0.37-3.559
					C204.861,239.252,204.927,238.79,204.958,238.792z"/>
			</g>
		</g>
	</g>
	<g>
		<g>
			<path fill="#7DB800" d="M201.365,262.046c-0.85-4.708-4.126-8.911-8.484-10.886c-1.11-0.501-2.553-0.815-3.438,0.021
				c-0.888,0.839-0.653,2.304-0.186,3.431c1.943,4.692,6.962,7.926,12.038,7.757"/>
		</g>
	</g>
	<g>
		<g>
			<g>
				<path fill="#263238" d="M193.732,254.626c0.017-0.026,0.237,0.083,0.622,0.304c0.389,0.215,0.929,0.563,1.585,1.012
					c1.281,0.919,3.07,2.289,4.436,4.349c0.677,1.026,1.145,2.119,1.414,3.149c0.275,1.034,0.316,2,0.309,2.799
					c-0.037,0.8-0.113,1.443-0.22,1.877c-0.094,0.436-0.159,0.671-0.189,0.665c-0.087-0.014,0.115-0.98,0.098-2.542
					c-0.032-0.778-0.104-1.707-0.389-2.694c-0.281-0.983-0.737-2.022-1.39-3.012c-1.313-1.981-3.032-3.366-4.253-4.341
					C194.505,255.235,193.694,254.686,193.732,254.626z"/>
			</g>
		</g>
	</g>
	<g>
		<g>
			<g>
				<path fill="#263238" d="M200.987,299.003L200.987,299.003c-8.047,0-14.569-6.523-14.569-14.568v-14.568h29.138v14.568
					C215.556,292.48,209.033,299.003,200.987,299.003z"/>
			</g>
		</g>
		<g>
			<g>
				<g>
					<path fill="#E0E0E0" d="M215.556,277.033c0.013,0.016-0.126,0.158-0.399,0.411c-0.33,0.295-0.728,0.652-1.205,1.079
						c-1.126,0.97-2.621,2.256-4.395,3.784l-0.107,0.093l-0.124-0.075c-2.442-1.468-5.335-3.208-8.445-5.077l-0.017-0.011
						l0.254-0.004c-2.881,1.867-5.57,3.61-7.856,5.092l-0.122,0.079l-0.112-0.088c-1.951-1.527-3.597-2.816-4.833-3.784
						c-0.529-0.43-0.97-0.788-1.331-1.083c-0.303-0.255-0.458-0.399-0.445-0.416c0.013-0.018,0.193,0.094,0.52,0.317
						c0.38,0.271,0.843,0.6,1.399,0.994c1.262,0.933,2.942,2.176,4.936,3.649l-0.233-0.01c2.275-1.498,4.951-3.262,7.818-5.151
						l0.125-0.082l0.129,0.078l0.018,0.011c3.095,1.894,5.973,3.656,8.403,5.145l-0.231,0.019c1.818-1.476,3.35-2.72,4.504-3.654
						c0.505-0.396,0.927-0.724,1.275-0.996C215.377,277.128,215.542,277.016,215.556,277.033z"/>
				</g>
			</g>
		</g>
		<g>
			<g>
				<g>
					<path fill="#E0E0E0" d="M215.556,274.12c0.013,0.016-0.126,0.158-0.399,0.412c-0.33,0.295-0.728,0.65-1.205,1.078
						c-1.126,0.97-2.621,2.257-4.395,3.783l-0.107,0.093l-0.124-0.074c-2.442-1.469-5.335-3.208-8.445-5.078l-0.017-0.01
						l0.254-0.005c-2.881,1.867-5.57,3.61-7.856,5.093l-0.122,0.078l-0.112-0.087c-1.951-1.528-3.597-2.816-4.833-3.785
						c-0.529-0.43-0.97-0.788-1.331-1.083c-0.303-0.255-0.458-0.399-0.445-0.415c0.013-0.019,0.193,0.094,0.52,0.317
						c0.38,0.27,0.843,0.599,1.399,0.993c1.262,0.934,2.942,2.176,4.936,3.649l-0.233-0.008c2.275-1.5,4.951-3.264,7.818-5.152
						l0.125-0.083l0.129,0.078l0.018,0.011c3.095,1.896,5.973,3.658,8.403,5.146l-0.231,0.017c1.818-1.476,3.35-2.718,4.504-3.654
						c0.505-0.394,0.927-0.724,1.275-0.996C215.377,274.215,215.542,274.104,215.556,274.12z"/>
				</g>
			</g>
		</g>
		<g>
			<g>
				<g>
					<path fill="#E0E0E0" d="M215.556,279.996c0.013,0.016-0.126,0.158-0.399,0.411c-0.33,0.295-0.728,0.652-1.205,1.079
						c-1.126,0.97-2.621,2.256-4.395,3.784l-0.107,0.092l-0.124-0.074c-2.442-1.468-5.335-3.208-8.445-5.077l-0.017-0.011
						l0.254-0.004c-2.881,1.867-5.57,3.61-7.856,5.092l-0.122,0.079l-0.112-0.088c-1.951-1.527-3.597-2.816-4.833-3.785
						c-0.529-0.43-0.97-0.788-1.331-1.082c-0.303-0.255-0.458-0.399-0.445-0.416c0.013-0.018,0.193,0.094,0.52,0.317
						c0.38,0.271,0.843,0.6,1.399,0.994c1.262,0.933,2.942,2.176,4.936,3.649l-0.233-0.01c2.275-1.499,4.951-3.262,7.818-5.151
						l0.125-0.082l0.129,0.078l0.018,0.011c3.095,1.894,5.973,3.656,8.403,5.145l-0.231,0.018c1.818-1.475,3.35-2.719,4.504-3.655
						c0.505-0.394,0.927-0.723,1.275-0.994C215.377,280.09,215.542,279.979,215.556,279.996z"/>
				</g>
			</g>
		</g>
	</g>
	<g>
		<g>
			<g>
				<g>
					<g>
						<polyline fill="#455A64" points="461.488,197.101 522.31,230.773 520.022,235.069 459.745,200.755 461.488,197.101 						"/>
					</g>
				</g>
			</g>
			<g>
				<g>
					<g>
						<polygon fill="#455A64" points="458.5,193.912 461.293,189.635 462.921,190.636 460.417,194.957 						"/>
					</g>
				</g>
			</g>
			<g>
				<g>
					<g>
						<polygon fill="#455A64" points="515.401,225.451 518.525,227.251 508.337,292.232 503.522,292.292 						"/>
					</g>
				</g>
			</g>
			<g>
				<g>
					<g>
						<path fill="#455A64" d="M489.505,299.003c0,0,7.414-7.504,17.349-6.951c9.936,0.552,15.028,6.915,15.028,6.915
							L489.505,299.003z"/>
					</g>
				</g>
			</g>
		</g>
		<g>
			<g>
				<path fill="#455A64" d="M458.553,223.375l-24.08-13.904l6.952-12.04c3.839-6.649,12.342-8.928,18.991-5.088l0,0
					c6.649,3.839,8.928,12.341,5.089,18.992L458.553,223.375z"/>
			</g>
		</g>
	</g>
	<ellipse opacity="0.6" fill="#F6F0EC" cx="356.026" cy="474.11" rx="309.801" ry="10.845"/>
	<g>
		<rect x="273.047" y="460.176" fill="#263238" width="10.108" height="13.794"/>
	</g>
	<g>
		<g>
			<g>
				<g>
					<rect x="337.361" y="294.846" fill="#263238" width="89.73" height="4.364"/>
				</g>
			</g>
			<g>
				<g>
					<polygon fill="#263238" points="440.997,299.21 457.828,236.138 387.766,236.138 372.524,299.21 					"/>
				</g>
			</g>
		</g>
		<g>
			<g>
				<polygon fill="#F5F5F5" points="376.723,294.436 439.313,294.436 453.881,239.053 390.969,239.053 				"/>
			</g>
		</g>
	</g>
	<g>
		<polygon fill="#E0E0E0" points="392.526,249.78 388.647,265.465 430.147,265.465 434.573,249.78 		"/>
	</g>
	<g>
		<g>
			<ellipse fill="#455A64" cx="409.562" cy="247.713" rx="16.257" ry="0.303"/>
		</g>
	</g>
	<g>
		<g>
			<ellipse fill="#263238" cx="400.352" cy="252.781" rx="6.552" ry="0.304"/>
		</g>
	</g>
	<g>
		<g>
			<ellipse fill="#263238" cx="413.148" cy="252.535" rx="4.265" ry="0.304"/>
		</g>
	</g>
	<g>
		<g>
			<ellipse fill="#455A64" cx="411.355" cy="255.625" rx="17.927" ry="0.303"/>
		</g>
	</g>
	<g>
		<g>
			<ellipse fill="#F04F20" cx="398.497" cy="258.221" rx="5.81" ry="0.304"/>
		</g>
	</g>
	<g>
		<g>
			<ellipse fill="#455A64" cx="409.438" cy="261.93" rx="16.628" ry="0.304"/>
		</g>
	</g>
	<g>
		<g>
			<ellipse fill="#455A64" cx="395.16" cy="269.966" rx="6.429" ry="0.303"/>
		</g>
	</g>
	<g>
		<g>
			
				<ellipse transform="matrix(1 0.0081 -0.0081 1 2.2057 -3.3057)" fill="#263238" cx="408.203" cy="269.979" rx="4.39" ry="0.303"/>
		</g>
	</g>
	<g>
		<g>
			<ellipse fill="#263238" cx="416.917" cy="269.718" rx="1.854" ry="0.304"/>
		</g>
	</g>
	<g>
		<g>
			<ellipse fill="#F04F20" cx="391.018" cy="273.181" rx="2.041" ry="0.303"/>
		</g>
	</g>
	<g>
		<g>
			<ellipse fill="#263238" cx="400.414" cy="273.181" rx="4.884" ry="0.303"/>
		</g>
	</g>
	<g>
		<g>
			<ellipse fill="#455A64" cx="421.43" cy="272.81" rx="13.043" ry="0.303"/>
		</g>
	</g>
	<g>
		<g>
			<ellipse fill="#263238" cx="390.337" cy="276.518" rx="2.102" ry="0.304"/>
		</g>
	</g>
	<g>
		<g>
			<ellipse fill="#263238" cx="396.333" cy="276.395" rx="2.534" ry="0.303"/>
		</g>
	</g>
	<g>
		<g>
			<ellipse fill="#455A64" cx="409.81" cy="276.147" rx="8.221" ry="0.304"/>
		</g>
	</g>
	<g>
		<g>
			<ellipse fill="#455A64" cx="397.941" cy="281.958" rx="9.952" ry="0.305"/>
		</g>
	</g>
	<g>
		<g>
			<ellipse fill="#E8505B" cx="415.001" cy="281.711" rx="4.513" ry="0.304"/>
		</g>
	</g>
	<g>
		<g>
			<ellipse fill="#263238" cx="429.281" cy="281.711" rx="7.48" ry="0.304"/>
		</g>
	</g>
	<g>
		<g>
			<ellipse fill="#263238" cx="431.197" cy="247.465" rx="1.545" ry="0.304"/>
		</g>
	</g>
	<g>
		<g>
			<ellipse fill="#F04F20" cx="397.817" cy="245.364" rx="3.4" ry="0.304"/>
		</g>
	</g>
	<g>
		<path fill="#EBEBEB" d="M452.835,243.034c-21.195,0-41.73,0-62.925,0l1.059-3.98h62.912L452.835,243.034z"/>
	</g>
	<g>
		<circle fill="#FAFAFA" cx="393.619" cy="241.065" r="0.687"/>
	</g>
	<g>
		<circle fill="#FAFAFA" cx="395.987" cy="241.065" r="0.688"/>
	</g>
	<g>
		<circle fill="#FAFAFA" cx="398.354" cy="241.065" r="0.688"/>
	</g>
	<g>
		<g>
			<g>
				<g>
					<rect x="380.331" y="305.075" fill="#263238" width="149.176" height="87.046"/>
				</g>
				<g>
					<rect x="380.331" y="305.075" fill="#455A64" width="67.958" height="87.046"/>
				</g>
				<g>
					<g>
						<g>
							<path fill="#263238" d="M441.366,334.642c-0.008-0.008-0.015-0.159-0.022-0.448c-0.006-0.318-0.014-0.738-0.024-1.271
								c-0.012-1.144-0.03-2.765-0.054-4.834c-0.027-4.201-0.067-10.213-0.118-17.627l0.219,0.219
								c-14.13,0.021-33.416,0.051-54.664,0.084c-0.274,0.271,0.364-0.37,0.299-0.301v0.006v0.013v0.024v0.051v0.099v0.199v0.398
								v0.793v1.58C387,314.678,387,315.723,387,316.763c-0.001,2.079-0.002,4.133-0.003,6.155
								c-0.004,4.046-0.008,7.968-0.012,11.724l-0.288-0.289c15.836,0.056,29.458,0.104,39.161,0.138
								c4.831,0.034,8.686,0.062,11.373,0.079c1.304,0.017,2.324,0.027,3.056,0.037c0.327,0.007,0.589,0.013,0.797,0.018
								C441.265,334.63,441.36,334.636,441.366,334.642c0.006,0.007-0.077,0.013-0.247,0.019c-0.198,0.004-0.449,0.01-0.763,0.017
								c-0.717,0.009-1.718,0.021-2.996,0.036c-2.672,0.02-6.504,0.047-11.308,0.08c-9.752,0.034-23.44,0.082-39.355,0.138
								l-0.288,0.001v-0.29c-0.004-3.756-0.008-7.678-0.012-11.724c0-2.022-0.002-4.076-0.002-6.155c0-1.04,0-2.085-0.001-3.137
								v-1.58v-0.793v-0.398v-0.199v-0.099v-0.051v-0.024v-0.013v-0.006c-0.067,0.063,0.575-0.577,0.308-0.306
								c21.248,0.032,40.534,0.063,54.664,0.085h0.22l-0.001,0.219c-0.05,7.47-0.09,13.527-0.118,17.759
								c-0.023,2.049-0.041,3.654-0.054,4.787c-0.01,0.515-0.019,0.923-0.023,1.23C441.38,334.512,441.374,334.65,441.366,334.642z"
								/>
						</g>
					</g>
					<g>
						<g>
							<path fill="#263238" d="M416.357,322.551c-0.11,0.042-0.04-0.935-1.049-1.677c-0.481-0.349-1.247-0.526-1.974-0.243
								c-0.72,0.26-1.332,1.028-1.325,1.92c-0.007,0.892,0.605,1.66,1.325,1.921c0.727,0.283,1.492,0.104,1.974-0.243
								C416.317,323.486,416.247,322.509,416.357,322.551c0.034-0.001,0.097,0.209,0.041,0.597
								c-0.054,0.379-0.268,0.957-0.829,1.422c-0.542,0.466-1.485,0.756-2.425,0.428c-0.931-0.297-1.753-1.284-1.741-2.446
								c-0.012-1.162,0.811-2.149,1.741-2.446c0.939-0.327,1.883-0.038,2.425,0.428c0.562,0.466,0.774,1.044,0.829,1.423
								C416.454,322.343,416.391,322.553,416.357,322.551z"/>
						</g>
					</g>
				</g>
				<g>
					<g>
						<g>
							<path fill="#263238" d="M441.366,361.26c-0.008-0.008-0.015-0.161-0.022-0.45c-0.006-0.318-0.014-0.738-0.024-1.271
								c-0.012-1.143-0.03-2.765-0.054-4.835c-0.027-4.199-0.067-10.213-0.118-17.627l0.219,0.219
								c-14.13,0.021-33.416,0.053-54.664,0.085c-0.274,0.271,0.364-0.369,0.299-0.301v0.007v0.013v0.024v0.049v0.101v0.199v0.396
								v0.793v1.582C387,341.295,387,342.341,387,343.38c-0.001,2.079-0.002,4.133-0.003,6.155
								c-0.004,4.045-0.008,7.967-0.012,11.723l-0.288-0.287c15.836,0.056,29.458,0.103,39.161,0.137
								c4.831,0.033,8.686,0.061,11.373,0.079c1.304,0.016,2.324,0.028,3.056,0.036c0.327,0.008,0.589,0.014,0.797,0.019
								C441.265,361.248,441.36,361.253,441.366,361.26c0.006,0.005-0.077,0.011-0.247,0.017c-0.198,0.005-0.449,0.011-0.763,0.019
								c-0.717,0.008-1.718,0.021-2.996,0.036c-2.672,0.019-6.504,0.046-11.308,0.08c-9.752,0.032-23.44,0.08-39.355,0.136
								l-0.288,0.002v-0.291c-0.004-3.756-0.008-7.678-0.012-11.723c0-2.022-0.002-4.076-0.002-6.155c0-1.039,0-2.085-0.001-3.136
								v-1.582v-0.793v-0.396v-0.199v-0.101v-0.049V337.1v-0.013v-0.007c-0.067,0.063,0.575-0.577,0.308-0.306
								c21.248,0.033,40.534,0.063,54.664,0.085l0.22,0.001l-0.001,0.217c-0.05,7.47-0.09,13.529-0.118,17.76
								c-0.023,2.05-0.041,3.655-0.054,4.786c-0.01,0.516-0.019,0.923-0.023,1.231C441.38,361.13,441.374,361.267,441.366,361.26z"
								/>
						</g>
					</g>
					<g>
						<g>
							<path fill="#263238" d="M416.357,349.168c-0.11,0.042-0.04-0.935-1.049-1.677c-0.481-0.349-1.247-0.526-1.974-0.244
								c-0.72,0.262-1.332,1.03-1.325,1.921c-0.007,0.892,0.605,1.66,1.325,1.922c0.727,0.282,1.492,0.104,1.974-0.244
								C416.317,350.104,416.247,349.127,416.357,349.168c0.034-0.001,0.097,0.209,0.041,0.598
								c-0.054,0.379-0.268,0.955-0.829,1.422c-0.542,0.466-1.485,0.756-2.425,0.428c-0.931-0.297-1.753-1.284-1.741-2.447
								c-0.012-1.162,0.811-2.149,1.741-2.446c0.939-0.328,1.883-0.038,2.425,0.428c0.562,0.466,0.774,1.043,0.829,1.422
								C416.454,348.96,416.391,349.17,416.357,349.168z"/>
						</g>
					</g>
				</g>
				<g>
					<g>
						<g>
							<path fill="#263238" d="M441.366,387.876c-0.008-0.008-0.015-0.159-0.022-0.448c-0.006-0.318-0.014-0.738-0.024-1.271
								c-0.012-1.144-0.03-2.765-0.054-4.836c-0.027-4.2-0.067-10.212-0.118-17.626l0.219,0.218
								c-14.13,0.022-33.416,0.052-54.664,0.085c-0.274,0.271,0.364-0.37,0.299-0.301v0.006v0.013v0.025v0.05v0.099v0.199v0.397
								v0.794v1.581C387,367.913,387,368.958,387,369.999c-0.001,2.077-0.002,4.131-0.003,6.154
								c-0.004,4.045-0.008,7.968-0.012,11.724l-0.288-0.289c15.836,0.056,29.458,0.104,39.161,0.138
								c4.831,0.034,8.686,0.061,11.373,0.08c1.304,0.015,2.324,0.027,3.056,0.036c0.327,0.007,0.589,0.013,0.797,0.018
								C441.265,387.864,441.36,387.871,441.366,387.876s-0.077,0.012-0.247,0.019c-0.198,0.004-0.449,0.01-0.763,0.017
								c-0.717,0.01-1.718,0.021-2.996,0.037c-2.672,0.019-6.504,0.045-11.308,0.079c-9.752,0.034-23.44,0.082-39.355,0.138h-0.288
								v-0.289c-0.004-3.756-0.008-7.679-0.012-11.724c0-2.023-0.002-4.077-0.002-6.154c0-1.04,0-2.086-0.001-3.137v-1.581v-0.794
								v-0.397v-0.199v-0.099v-0.05v-0.025v-0.013v-0.006c-0.067,0.063,0.575-0.576,0.308-0.306
								c21.248,0.033,40.534,0.063,54.664,0.085h0.22l-0.001,0.219c-0.05,7.47-0.09,13.527-0.118,17.759
								c-0.023,2.05-0.041,3.655-0.054,4.787c-0.01,0.516-0.019,0.922-0.023,1.231C441.38,387.747,441.374,387.884,441.366,387.876z
								"/>
						</g>
					</g>
					<g>
						<g>
							<path fill="#263238" d="M416.357,375.787c-0.11,0.042-0.04-0.936-1.049-1.679c-0.481-0.347-1.247-0.525-1.974-0.243
								c-0.72,0.262-1.332,1.029-1.325,1.921c-0.007,0.892,0.605,1.659,1.325,1.921c0.727,0.284,1.492,0.105,1.974-0.243
								C416.317,376.72,416.247,375.745,416.357,375.787c0.034-0.003,0.097,0.208,0.041,0.596c-0.054,0.379-0.268,0.957-0.829,1.423
								c-0.542,0.465-1.485,0.755-2.425,0.428c-0.931-0.297-1.753-1.285-1.741-2.447c-0.012-1.162,0.811-2.149,1.741-2.445
								c0.939-0.328,1.883-0.039,2.425,0.427c0.562,0.466,0.774,1.043,0.829,1.422C416.454,375.577,416.391,375.788,416.357,375.787
								z"/>
						</g>
					</g>
				</g>
			</g>
			<g>
				<polygon fill="#263238" points="280.981,462.97 181.277,462.899 181.277,305.075 280.981,305.075 				"/>
			</g>
			<g>
				<rect x="176.466" y="299.003" fill="#263238" width="358.457" height="8.271"/>
			</g>
			<g>
				<rect x="181.277" y="307.275" fill="#263238" width="11.115" height="167.432"/>
			</g>
			<g>
				<rect x="518.392" y="307.275" fill="#263238" width="11.114" height="167.472"/>
			</g>
			<g>
				<rect x="448.289" y="307.275" fill="#263238" width="11.115" height="167.472"/>
			</g>
		</g>
		<g>
			<g>
				<ellipse fill="#455A64" cx="203.012" cy="299.003" rx="23.863" ry="0.304"/>
			</g>
		</g>
	</g>
	<g>
		<g>
			<g>
				<g>
					<path fill="#F04F20" d="M331.679,466.555l0.284-11.975l-22.426-0.675l-0.601,17.515l1.388,0.131
						c6.178,0.529,31.45,2.259,35.625,1.129C350.604,471.419,331.679,466.555,331.679,466.555z"/>
				</g>
			</g>
		</g>
	</g>
	<g opacity="0.4">
		<g>
			<g>
				<path fill="#FFFFFF" d="M340.916,469.264c0,0,6.621,2.128,5.754,3.202c-0.866,1.075-26.471,0.289-37.734-1.046l0.051-0.501
					l29.858,1.172C338.845,472.091,339.609,469.279,340.916,469.264z"/>
			</g>
		</g>
	</g>
	<g>
		<g>
			<g>
				<g>
					<path fill="#263238" d="M308.635,470.895c0,0.01,0.132,0.028,0.384,0.055c0.332,0.029,0.696,0.063,1.105,0.1
						c1.107,0.082,2.466,0.182,4.071,0.301c3.439,0.229,8.194,0.483,13.451,0.65c5.258,0.164,10.02,0.209,13.466,0.197
						c1.609-0.019,2.973-0.033,4.082-0.045c0.412-0.011,0.776-0.021,1.109-0.031c0.253-0.01,0.386-0.02,0.386-0.029
						c0-0.009-0.133-0.018-0.386-0.025c-0.334-0.006-0.698-0.013-1.11-0.02c-1.108-0.012-2.471-0.026-4.08-0.042
						c-3.444-0.036-8.204-0.113-13.458-0.276c-5.253-0.166-10.007-0.391-13.448-0.57c-1.606-0.084-2.967-0.156-4.074-0.215
						c-0.412-0.019-0.776-0.034-1.109-0.049C308.77,470.885,308.636,470.885,308.635,470.895z"/>
				</g>
			</g>
		</g>
	</g>
	<g>
		<g>
			<g>
				<g>
					<path fill="#263238" d="M338.828,472.44c0.083,0.013,0.176-0.958,0.821-1.922c0.629-0.977,1.483-1.447,1.438-1.518
						c-0.014-0.068-0.988,0.324-1.665,1.367C338.734,471.403,338.761,472.454,338.828,472.44z"/>
				</g>
			</g>
		</g>
	</g>
	<g>
		<g>
			<g>
				<g>
					
						<ellipse transform="matrix(-0.5615 0.8275 -0.8275 -0.5615 907.1091 455.2392)" fill="#263238" cx="332.936" cy="467.965" rx="1.105" ry="0.136"/>
				</g>
			</g>
		</g>
	</g>
	<g>
		<g>
			<g>
				<g>
					
						<ellipse transform="matrix(-0.7641 0.645 -0.645 -0.7641 885.7701 610.6383)" fill="#263238" cx="331.247" cy="467.257" rx="0.941" ry="0.136"/>
				</g>
			</g>
		</g>
	</g>
	<g>
		<g>
			<g>
				<g>
					
						<ellipse transform="matrix(-0.9991 -0.0417 0.0417 -0.9991 641.5439 944.8905)" fill="#263238" cx="330.616" cy="465.761" rx="1.172" ry="0.136"/>
				</g>
			</g>
		</g>
	</g>
	<g>
		<g>
			<g>
				<g>
					<path fill="#263238" d="M329.097,464.207c-0.027,0.067,0.535,0.342,1.293,0.42c0.759,0.083,1.367-0.067,1.354-0.138
						c-0.01-0.078-0.604-0.053-1.325-0.132C329.699,464.283,329.123,464.132,329.097,464.207z"/>
				</g>
			</g>
		</g>
	</g>
	<g>
		<g>
			<g>
				<g>
					<path fill="#263238" d="M333.135,466.947c-0.002,0.03,0.548,0.114,1.441,0.035c0.446-0.04,0.974-0.129,1.545-0.291
						c0.284-0.092,0.58-0.157,0.889-0.335c0.146-0.091,0.308-0.22,0.37-0.437c0.066-0.214-0.042-0.461-0.201-0.583
						c-1.355-0.757-2.759-0.023-3.292,0.673c-0.293,0.354-0.432,0.705-0.499,0.946c-0.065,0.246-0.065,0.386-0.05,0.389
						c0.051,0.02,0.115-0.563,0.694-1.209c0.286-0.316,0.713-0.619,1.255-0.763c0.514-0.135,1.239-0.153,1.714,0.17
						c0.223,0.177,0.126,0.442-0.133,0.587c-0.242,0.146-0.551,0.229-0.82,0.321c-0.551,0.171-1.063,0.277-1.496,0.341
						C333.686,466.918,333.136,466.902,333.135,466.947z"/>
				</g>
			</g>
		</g>
	</g>
	<g>
		<g>
			<g>
				<g>
					<path fill="#263238" d="M333.506,467.03c0.021,0.016,0.244-0.345,0.197-0.996c-0.026-0.318-0.131-0.699-0.361-1.064
						c-0.245-0.328-0.559-0.778-1.177-0.771c-0.335,0.033-0.51,0.407-0.465,0.651c0.019,0.254,0.125,0.474,0.226,0.652
						c0.203,0.366,0.436,0.664,0.654,0.892c0.438,0.455,0.79,0.636,0.807,0.609c0.026-0.034-0.279-0.268-0.662-0.736
						c-0.191-0.233-0.397-0.53-0.577-0.883c-0.189-0.311-0.307-0.861,0.056-0.916c0.362-0.024,0.719,0.346,0.93,0.641
						c0.217,0.318,0.333,0.658,0.379,0.949C333.604,466.647,333.459,467.017,333.506,467.03z"/>
				</g>
			</g>
		</g>
	</g>
	<g>
		<g>
			<g>
				<g>
					<path fill="#263238" d="M309.282,464.773c0.003,0.052,0.645-0.041,1.654,0.109c1,0.143,2.384,0.598,3.569,1.601
						c1.184,1.006,1.857,2.298,2.161,3.262c0.313,0.973,0.326,1.619,0.376,1.614c0.017,0,0.03-0.161,0.015-0.453
						c-0.015-0.29-0.071-0.711-0.208-1.216c-0.263-1.005-0.935-2.364-2.169-3.414c-1.235-1.046-2.687-1.488-3.72-1.585
						c-0.521-0.052-0.945-0.039-1.234-0.005C309.437,464.717,309.28,464.757,309.282,464.773z"/>
				</g>
			</g>
		</g>
	</g>
	<g>
		<g>
			<g>
				<g>
					
						<ellipse transform="matrix(0.0433 -0.9991 0.9991 0.0433 -161.4948 751.5894)" fill="#263238" cx="311.692" cy="460.119" rx="4.611" ry="0.136"/>
				</g>
			</g>
		</g>
	</g>
	<g>
		<g>
			<g>
				<g>
					<path fill="#263238" d="M319.961,469.389c-0.012,0.069,1.442,0.354,3.264,0.425c1.822,0.076,3.294-0.091,3.288-0.162
						c-0.005-0.078-1.472-0.034-3.277-0.108C321.432,469.472,319.973,469.311,319.961,469.389z"/>
				</g>
			</g>
		</g>
	</g>
	<g>
		<g>
			<g>
				<g>
					<path fill="#263238" d="M315.567,469.248c-0.056,0.053,0.11,0.313,0.249,0.655c0.145,0.339,0.212,0.641,0.29,0.638
						c0.072,0.001,0.126-0.352-0.038-0.743C315.905,469.404,315.617,469.195,315.567,469.248z"/>
				</g>
			</g>
		</g>
	</g>
	<g>
		<g>
			<g>
				<g>
					
						<ellipse transform="matrix(-0.6805 -0.7327 0.7327 -0.6805 185.7128 1016.1216)" fill="#263238" cx="314.38" cy="467.574" rx="0.598" ry="0.136"/>
				</g>
			</g>
		</g>
	</g>
	<g>
		<g>
			<g>
				<g>
					<path fill="#263238" d="M311.632,466.121c0.014,0.076,0.312,0.083,0.637,0.209c0.329,0.118,0.558,0.309,0.618,0.26
						c0.062-0.039-0.118-0.364-0.522-0.515C311.96,465.922,311.612,466.05,311.632,466.121z"/>
				</g>
			</g>
		</g>
	</g>
	<g>
		<g>
			<g>
				<g>
					
						<ellipse transform="matrix(-0.9207 -0.3902 0.3902 -0.9207 414.2643 1015.6824)" fill="#263238" cx="310.292" cy="465.766" rx="0.362" ry="0.136"/>
				</g>
			</g>
		</g>
	</g>
	<g opacity="0.3">
		<polygon points="309.331,464.173 331.745,464.489 331.792,461.788 309.196,462.748 		"/>
	</g>
	<g>
		<g>
			<g>
				<g>
					<path fill="#F04F20" d="M367.055,468.417l-0.033-11.978l-22.436-0.082l-0.138,17.523l1.391,0.095
						c6.19,0.366,31.499,1.427,35.642,0.187C386.102,472.779,367.055,468.417,367.055,468.417z"/>
				</g>
			</g>
		</g>
	</g>
	<g opacity="0.4">
		<g>
			<g>
				<path fill="#FFFFFF" d="M376.361,470.879c0,0,6.674,1.952,5.836,3.05c-0.837,1.097-26.453,0.987-37.749-0.049l0.038-0.502
					l29.878,0.383C374.365,473.761,375.053,470.93,376.361,470.879z"/>
			</g>
		</g>
	</g>
	<g>
		<g>
			<g>
				<g>
					<path fill="#263238" d="M344.134,473.364c0,0.009,0.133,0.023,0.386,0.043c0.332,0.021,0.696,0.046,1.108,0.072
						c1.107,0.052,2.469,0.117,4.077,0.192c3.443,0.139,8.204,0.267,13.462,0.294c5.261,0.025,10.022-0.055,13.467-0.159
						c1.607-0.061,2.971-0.11,4.078-0.151c0.412-0.022,0.776-0.043,1.109-0.062c0.253-0.016,0.385-0.029,0.385-0.038
						c0-0.01-0.133-0.015-0.387-0.017c-0.334,0.004-0.698,0.006-1.109,0.011c-1.109,0.017-2.473,0.04-4.08,0.064
						c-3.444,0.055-8.204,0.105-13.461,0.08c-5.256-0.027-10.014-0.125-13.458-0.214c-1.608-0.042-2.971-0.079-4.079-0.107
						c-0.412-0.008-0.777-0.015-1.11-0.021C344.268,473.351,344.134,473.355,344.134,473.364z"/>
				</g>
			</g>
		</g>
	</g>
	<g>
		<g>
			<g>
				<g>
					<path fill="#263238" d="M374.358,474.11c0.082,0.011,0.15-0.964,0.77-1.943c0.602-0.992,1.443-1.485,1.396-1.555
						c-0.016-0.068-0.979,0.35-1.628,1.411C374.235,473.076,374.29,474.126,374.358,474.11z"/>
				</g>
			</g>
		</g>
	</g>
	<g>
		<g>
			<g>
				<g>
					
						<ellipse transform="matrix(-0.5393 0.8421 -0.8421 -0.5393 962.6182 412.9796)" fill="#263238" cx="368.348" cy="469.792" rx="1.106" ry="0.136"/>
				</g>
			</g>
		</g>
	</g>
	<g>
		<g>
			<g>
				<g>
					
						<ellipse transform="matrix(-0.7469 0.6649 -0.6649 -0.7469 952.4235 575.7476)" fill="#263238" cx="366.642" cy="469.129" rx="0.941" ry="0.136"/>
				</g>
			</g>
		</g>
	</g>
	<g>
		<g>
			<g>
				<g>
					
						<ellipse transform="matrix(-0.9999 -0.0154 0.0154 -0.9999 724.6891 940.8859)" fill="#263238" cx="365.971" cy="467.649" rx="1.172" ry="0.137"/>
				</g>
			</g>
		</g>
	</g>
	<g>
		<g>
			<g>
				<g>
					<path fill="#263238" d="M364.412,466.136c-0.026,0.067,0.544,0.328,1.304,0.386c0.761,0.063,1.364-0.104,1.35-0.174
						c-0.013-0.077-0.606-0.036-1.328-0.097C365.016,466.197,364.436,466.062,364.412,466.136z"/>
				</g>
			</g>
		</g>
	</g>
	<g>
		<g>
			<g>
				<g>
					<path fill="#263238" d="M368.521,468.768c-0.001,0.031,0.552,0.102,1.442-0.002c0.443-0.052,0.969-0.155,1.536-0.332
						c0.28-0.1,0.575-0.172,0.88-0.359c0.143-0.094,0.302-0.227,0.358-0.445c0.061-0.217-0.054-0.459-0.216-0.577
						c-1.375-0.72-2.758,0.049-3.272,0.759c-0.284,0.363-0.414,0.717-0.475,0.961c-0.06,0.245-0.056,0.387-0.04,0.389
						c0.051,0.02,0.101-0.566,0.663-1.227c0.276-0.323,0.696-0.639,1.235-0.795c0.509-0.149,1.234-0.188,1.717,0.124
						c0.229,0.17,0.139,0.438-0.117,0.59c-0.237,0.151-0.545,0.244-0.812,0.343c-0.547,0.186-1.056,0.305-1.486,0.38
						C369.071,468.725,368.521,468.724,368.521,468.768z"/>
				</g>
			</g>
		</g>
	</g>
	<g>
		<g>
			<g>
				<g>
					<path fill="#263238" d="M368.894,468.842c0.021,0.016,0.234-0.352,0.171-1c-0.034-0.319-0.148-0.698-0.389-1.057
						c-0.254-0.32-0.58-0.763-1.198-0.739c-0.335,0.041-0.499,0.421-0.446,0.663c0.024,0.253,0.137,0.472,0.242,0.646
						c0.213,0.362,0.453,0.654,0.677,0.876c0.45,0.442,0.807,0.613,0.822,0.587c0.026-0.035-0.286-0.261-0.682-0.718
						c-0.196-0.229-0.41-0.52-0.601-0.868c-0.195-0.306-0.328-0.854,0.033-0.917c0.36-0.033,0.728,0.326,0.946,0.615
						c0.226,0.313,0.351,0.65,0.404,0.939C368.982,468.458,368.846,468.831,368.894,468.842z"/>
				</g>
			</g>
		</g>
	</g>
	<g>
		<g>
			<g>
				<g>
					<path fill="#263238" d="M344.619,467.226c0.004,0.052,0.642-0.058,1.656,0.066c1.004,0.116,2.399,0.533,3.61,1.505
						c1.209,0.976,1.917,2.249,2.246,3.204c0.338,0.963,0.369,1.609,0.42,1.604c0.016-0.001,0.025-0.163,0.002-0.453
						s-0.089-0.709-0.24-1.21c-0.29-0.997-0.997-2.34-2.258-3.355c-1.263-1.014-2.725-1.417-3.761-1.485
						c-0.521-0.038-0.946-0.015-1.234,0.026C344.771,467.167,344.616,467.21,344.619,467.226z"/>
				</g>
			</g>
		</g>
	</g>
	<g>
		<g>
			<g>
				<g>
					
						<ellipse transform="matrix(0.0169 -0.9999 0.9999 0.0169 -121.4164 801.5281)" fill="#263238" cx="346.905" cy="462.51" rx="4.611" ry="0.136"/>
				</g>
			</g>
		</g>
	</g>
	<g>
		<g>
			<g>
				<g>
					<path fill="#263238" d="M355.417,471.558c-0.01,0.07,1.451,0.316,3.273,0.339c1.823,0.028,3.29-0.178,3.282-0.249
						c-0.006-0.078-1.472,0.005-3.278-0.022C356.888,471.604,355.425,471.479,355.417,471.558z"/>
				</g>
			</g>
		</g>
	</g>
	<g>
		<g>
			<g>
				<g>
					<path fill="#263238" d="M351.019,471.533c-0.054,0.055,0.119,0.311,0.267,0.647c0.153,0.336,0.229,0.637,0.306,0.631
						c0.072,0,0.117-0.354-0.058-0.741C351.362,471.681,351.068,471.478,351.019,471.533z"/>
				</g>
			</g>
		</g>
	</g>
	<g>
		<g>
			<g>
				<g>
					
						<ellipse transform="matrix(-0.6993 -0.7148 0.7148 -0.6993 258.5159 1048.527)" fill="#263238" cx="349.79" cy="469.891" rx="0.598" ry="0.137"/>
				</g>
			</g>
		</g>
	</g>
	<g>
		<g>
			<g>
				<g>
					<path fill="#263238" d="M347.004,468.511c0.016,0.076,0.313,0.075,0.643,0.192c0.332,0.109,0.566,0.293,0.625,0.243
						c0.06-0.041-0.127-0.362-0.537-0.501C347.327,468.304,346.981,468.442,347.004,468.511z"/>
				</g>
			</g>
		</g>
	</g>
	<g>
		<g>
			<g>
				<g>
					
						<ellipse transform="matrix(-0.9311 -0.3649 0.3649 -0.9311 496.6571 1030.2209)" fill="#263238" cx="345.654" cy="468.191" rx="0.361" ry="0.136"/>
				</g>
			</g>
		</g>
	</g>
	<g opacity="0.3">
		<polygon points="344.651,466.625 367.066,466.348 367.042,463.647 344.479,465.205 		"/>
	</g>
	<g>
		<g>
			<path fill="#FFBE9D" d="M317.516,263.393l8.984,27.054c2.426,7.308,8.81,8.557,16.508,8.557h49.976v-11.212l-45.657-6.519
				l-10.88-27.796L317.516,263.393z"/>
		</g>
		<g>
			<g>
				<path fill="#FFBE9D" d="M398.477,285.462l3.965-1.876c0,0,4.271-8.261,5.256-7.931c0.986,0.331,1.268,2.763-0.447,6.557
					l5.268-1.504c0,0,11.421,5.276,10.916,5.987s-1.44,2.394-3.929,1.122c-2.487-1.272-5.746-2.765-5.746-2.765l-6.154,1.758
					l7.935,1.007l7.463,6.79c0,0-2.45,1.833-4.563-0.112l-19.384,4.164l-6.071,0.344v-11.212L398.477,285.462z"/>
			</g>
			<g>
				<g>
					<path fill="#EB996E" d="M418.439,294.496c-0.083,0.055-0.443-0.519-1.143-1.28c-0.352-0.373-0.823-0.764-1.409-1.091
						c-0.564-0.314-1.297-0.452-2.094-0.546c-3.23-0.384-5.838-0.826-5.818-0.994c0.021-0.166,2.655,0.007,5.893,0.392
						c0.813,0.098,1.638,0.259,2.299,0.665c0.632,0.389,1.12,0.854,1.457,1.295C418.282,293.826,418.496,294.46,418.439,294.496z"/>
				</g>
			</g>
			<g>
				<g>
					<path fill="#EB996E" d="M415.406,295.274c-0.073,0-0.133-0.4-0.677-0.517c-0.555-0.102-1.438-0.206-2.355-0.301
						c-1.861-0.188-3.393-0.175-3.408-0.347c-0.02-0.16,1.539-0.452,3.467-0.257c0.971,0.104,1.796,0.259,2.439,0.499
						c0.333,0.137,0.548,0.408,0.59,0.61C415.511,295.17,415.442,295.281,415.406,295.274z"/>
				</g>
			</g>
		</g>
	</g>
	<g>
		<g>
			<g>
				<g>
					<g>
						<g>
							<g>
								<path fill="#FFBE9D" d="M275.328,152.159l-2.713,54.967l23.533,2.216l1.3-13.34c0,0,8.3,2.051,10.822-5.628
									c1.611-4.906,3.044-43.329,3.044-43.329L275.328,152.159z"/>
							</g>
						</g>
						<g>
							<g>
								<path fill="#263238" d="M313.346,153.463c0.651,5.143-6.541,8.121-6.541,8.121l-1.257,12.168
									c-0.998-0.16-3.381-0.03-3.381-0.03c0.606-5.709-6.748-4.596-7.496-0.702c-0.72,3.745,3.544,6.243,3.544,6.243
									c-2.943,4.517-4.137,6.899-8.313,11.13c-4.521,4.58-6.951,4.951-11.618,4.813l-5.141-0.238c0,0-1.831-4.393-3.173-14.768
									c-0.646-4.991-4.542-11.531-3.433-19.645c3.151-23.059,25.245-20.622,25.245-20.622
									C303.246,140.254,311.834,141.526,313.346,153.463z"/>
							</g>
						</g>
					</g>
				</g>
			</g>
			<g>
				<path fill="#263238" d="M296.412,140.601c4.992,0.129,10.163,0.522,14.545,2.916c4.383,2.394,7.76,7.311,6.86,12.222
					c-0.831,0.15-1.661,0.299-2.491,0.448c-0.343-0.612-0.686-1.226-1.029-1.839c0.01,0.979,0.02,1.958,0.029,2.938
					c-1.463,0.409-2.925,0.817-4.388,1.225c-0.649-3.731-1.971-7.345-3.884-10.614"/>
			</g>
		</g>
		<g>
			<g>
				<path fill="#455A64" d="M276.265,165.895c-0.036,0.013-0.186-0.29-0.39-0.863c-0.206-0.573-0.444-1.425-0.629-2.501
					c-0.379-2.14-0.428-5.25,0.564-8.462c0.991-3.215,2.784-5.756,4.303-7.311c0.759-0.785,1.437-1.354,1.929-1.712
					s0.786-0.524,0.809-0.493c0.065,0.083-1.014,0.884-2.421,2.495c-1.406,1.595-3.081,4.091-4.04,7.2
					c-0.959,3.107-0.982,6.113-0.719,8.223C275.927,164.593,276.366,165.864,276.265,165.895z"/>
			</g>
		</g>
		<g>
			<g>
				<path fill="#455A64" d="M280.899,163.971c-0.063,0.022-0.521-1.023-0.928-2.819c-0.409-1.79-0.694-4.347-0.454-7.155
					c0.25-2.808,0.974-5.278,1.687-6.97c0.711-1.698,1.344-2.647,1.403-2.615c0.195,0.071-2.037,4.107-2.485,9.637
					C279.605,159.571,281.104,163.934,280.899,163.971z"/>
			</g>
		</g>
		<g>
			<g>
				<path fill="#455A64" d="M310.943,155.447c-0.111,0.024-0.314-1.422-1.267-3.519c-0.931-2.083-2.77-4.803-5.669-6.77
					c-2.904-1.962-6.114-2.658-8.393-2.749c-2.301-0.106-3.718,0.243-3.737,0.131c-0.008-0.036,0.335-0.158,0.978-0.296
					c0.642-0.139,1.59-0.263,2.771-0.264c2.341-0.02,5.696,0.63,8.721,2.675c3.021,2.048,4.871,4.922,5.723,7.102
					c0.438,1.097,0.675,2.023,0.785,2.671C310.965,155.078,310.979,155.441,310.943,155.447z"/>
			</g>
		</g>
		<g>
			<g>
				<path fill="#263238" d="M276.993,136.153c0.041-0.149,1.813,0.404,3.38,1.994c1.583,1.577,2.127,3.351,1.977,3.391
					c-0.165,0.076-0.921-1.488-2.407-2.963C278.477,137.083,276.917,136.318,276.993,136.153z"/>
			</g>
		</g>
		<g>
			<g>
				<path fill="#455A64" d="M282.498,136.175c0.167,0.061-0.186,1.285-0.118,2.813c0.046,1.528,0.489,2.723,0.327,2.796
					c-0.134,0.083-0.878-1.1-0.934-2.774C281.704,137.337,282.357,136.102,282.498,136.175z"/>
			</g>
		</g>
	</g>
	<g>
		<g>
			<g>
				<g>
					<g>
						<g>
							<path fill="#F04F20" d="M313.282,257.495l3.843,13.021l24.392-11.044c-0.877-2.724-4.911-14.868-12.634-34.134
								c-4.303-10.736-13.875-18.483-25.285-20.381c-7.983-1.328-16.667-2.363-23.355-2.291
								c-13.678,0.152-33.813,8.701-36.52,22.109c-2.065,10.236-0.073,28.306-0.073,50.261l1.785,41.949l70.093,2.377
								L313.282,257.495z"/>
						</g>
					</g>
				</g>
			</g>
		</g>
		<g opacity="0.3">
			<g>
				<path fill="#F04F20" d="M243.724,265.327c8.53,1.744,17.288-0.015,25.978-0.53c5.269-0.313,11.115-0.883,15.283,2.356
					c3.305,2.568,4.635,6.886,5.589,10.961c3.636,15.534,4.297,25.947,5.114,41.88l-42.191,2.558L243.724,265.327z"/>
			</g>
		</g>
	</g>
	<g>
		<g>
			<path fill="#FAFAFA" d="M326.832,221.321c0,0.168-18.401,0.304-41.097,0.304c-22.703,0-41.102-0.135-41.102-0.304
				c0-0.167,18.398-0.303,41.102-0.303C308.43,221.018,326.832,221.153,326.832,221.321z"/>
		</g>
	</g>
	<g>
		<g>
			<path fill="#FAFAFA" d="M331.947,233.097c0,0.167-20.007,0.303-44.681,0.303c-24.683,0-44.685-0.136-44.685-0.303
				c0-0.167,20.002-0.304,44.685-0.304C311.94,232.793,331.947,232.93,331.947,233.097z"/>
		</g>
	</g>
	<g>
		<g>
			<path fill="#FAFAFA" d="M338.376,247.874c0,0.168-21.349,0.304-47.677,0.304c-26.338,0-47.682-0.136-47.682-0.304
				c0-0.167,21.344-0.302,47.682-0.302C317.028,247.571,338.376,247.707,338.376,247.874z"/>
		</g>
	</g>
	<g>
		<g>
			<ellipse fill="#FAFAFA" cx="297.855" cy="263.805" rx="14.893" ry="0.304"/>
		</g>
	</g>
	<g>
		<g>
			
				<ellipse transform="matrix(1 0.0081 -0.0081 1 2.2894 -2.4131)" fill="#FAFAFA" cx="298.549" cy="280.952" rx="15.587" ry="0.304"/>
		</g>
	</g>
	<g>
		<g>
			<path fill="#FAFAFA" d="M314.815,295.157c-0.002,0.042-0.44,0.058-1.229,0.051c-0.923-0.017-2.037-0.037-3.34-0.063
				c-2.819-0.063-6.712-0.14-11.012-0.144c-4.301-0.001-8.194,0.071-11.013,0.132c-1.303,0.023-2.417,0.044-3.34,0.06
				c-0.789,0.006-1.227-0.01-1.229-0.052c-0.002-0.043,0.431-0.105,1.217-0.184c0.786-0.081,1.926-0.167,3.335-0.253
				c2.818-0.171,6.72-0.312,11.031-0.311c4.309,0.004,8.21,0.148,11.029,0.322c1.409,0.086,2.548,0.175,3.334,0.256
				C314.384,295.052,314.817,295.116,314.815,295.157z"/>
		</g>
	</g>
	<g>
		<g>
			<ellipse fill="#FAFAFA" cx="299.24" cy="306.521" rx="15.354" ry="0.304"/>
		</g>
	</g>
	<g>
		<g>
			<path fill="#FAFAFA" d="M316.672,209.776c0,0.167-13.491,0.303-30.13,0.303c-16.645,0-30.133-0.135-30.133-0.303
				c0-0.168,13.489-0.303,30.133-0.303C303.181,209.474,316.672,209.608,316.672,209.776z"/>
		</g>
	</g>
	<g>
		<g>
			<path fill="#263238" d="M315.079,211.966c0.01,0.061-0.702,0.104-1.864,0.56c-1.144,0.469-2.717,1.469-4.036,3.268
				c-1.338,1.777-2.239,4.356-2.413,7.304c-0.205,2.948,0.231,6.214,0.737,9.609c1.083,6.796,2.736,12.824,3.916,17.182
				c0.578,2.104,1.056,3.843,1.417,5.161c0.327,1.223,0.49,1.903,0.45,1.915c-0.041,0.012-0.279-0.646-0.676-1.847
				c-0.396-1.201-0.951-2.944-1.603-5.111c-1.287-4.333-3.013-10.364-4.104-17.206c-0.508-3.415-0.936-6.713-0.695-9.743
				c0.205-3.022,1.19-5.709,2.627-7.521c1.414-1.836,3.091-2.817,4.296-3.231c0.611-0.199,1.101-0.295,1.435-0.328
				C314.902,211.95,315.078,211.944,315.079,211.966z"/>
		</g>
	</g>
	<g>
		<g>
			<path fill="#263238" d="M340.755,256.149c0.037,0.072-1.27,0.836-3.437,1.971c-2.166,1.136-5.198,2.63-8.599,4.164
				c-3.404,1.534-6.531,2.817-8.815,3.69c-2.285,0.873-3.723,1.346-3.752,1.27c-0.031-0.079,1.351-0.694,3.59-1.668
				c2.24-0.972,5.333-2.314,8.728-3.845c3.394-1.531,6.447-2.96,8.659-3.996C339.34,256.701,340.715,256.072,340.755,256.149z"/>
		</g>
	</g>
	<g>
		<g>
			<path fill="#263238" d="M267.11,317.648l83.748,2.964c13.595,0.481,24.305,11.752,24.094,25.354l-3.478,119.613l-32.351-1.077
				l2.401-111.985l-74.414-1.957V317.648z"/>
		</g>
		<g>
			<path fill="#263238" d="M232.515,317.648l83.748,2.964c13.595,0.481,24.305,11.752,24.094,25.354l-3.477,119.613L304.1,462.97
				l2.829-110.454l-74.415-1.957V317.648z"/>
		</g>
	</g>
	<g>
		<g>
			<g>
				<g>
					<rect x="286.955" y="361.103" fill="#455A64" width="8.237" height="98.697"/>
				</g>
				<g>
					<g>
						<path fill="#455A64" d="M217.834,265.3v72.655c0,9.529,7.725,17.254,17.254,17.254h48.38V265.3
							c0-4.246-3.443-7.689-7.689-7.689h-50.255C221.277,257.611,217.834,261.054,217.834,265.3z"/>
					</g>
					<g>
						<path fill="#455A64" d="M348.584,361.103H230.765l0,0c0-7.063,5.726-12.789,12.789-12.789h92.242
							C342.858,348.314,348.584,354.04,348.584,361.103L348.584,361.103z"/>
					</g>
				</g>
				<g>
					<g>
						<path fill="#263238" d="M283.468,346.618c0.021,0,0.032,0.189,0.033,0.557c0.008,0.363-0.037,0.907-0.191,1.587
							c-0.287,1.341-1.142,3.336-3.157,4.895c-0.998,0.762-2.268,1.414-3.74,1.665c-1.492,0.251-3.028,0.13-4.655,0.175
							c-3.264,0.011-6.837,0.022-10.586,0.034c-7.513,0.008-14.313-0.019-19.235-0.068c-2.388-0.036-4.356-0.067-5.829-0.09
							c-0.629-0.021-1.151-0.04-1.585-0.056c-0.362-0.02-0.552-0.039-0.552-0.061c0-0.021,0.19-0.041,0.552-0.062
							c0.434-0.016,0.956-0.035,1.585-0.058c1.473-0.026,3.441-0.062,5.829-0.104c4.922-0.061,11.723-0.102,19.235-0.109
							c3.75,0.005,7.322,0.009,10.586,0.013c1.621-0.027,3.198,0.104,4.568-0.11c1.393-0.214,2.604-0.811,3.571-1.513
							c1.949-1.438,2.837-3.32,3.185-4.61C283.435,347.39,283.399,346.613,283.468,346.618z"/>
					</g>
				</g>
				<g>
					<g>
						<ellipse fill="#263238" cx="291.073" cy="361.356" rx="7.227" ry="0.304"/>
					</g>
				</g>
			</g>
			<g>
				<g>
					<path fill="#455A64" d="M334.147,355.844c-0.083,0.011-0.339-1.221-0.73-3.46c-0.392-2.239-0.92-5.484-1.546-9.499
						c-0.673-4.013-1.061-8.863-3.272-13.681c-1.11-2.395-2.569-4.762-4.377-6.988c-1.824-2.215-4.058-4.21-6.568-5.917
						c-2.514-1.703-5.216-3.014-7.962-3.838c-2.736-0.828-5.481-1.362-8.123-1.4c-5.333-0.124-10.197-0.102-14.251-0.177
						c-4.062-0.055-7.349-0.12-9.621-0.193c-2.271-0.072-3.528-0.152-3.528-0.235c0-0.084,1.256-0.164,3.528-0.236
						c2.271-0.073,5.559-0.138,9.621-0.192c4.069-0.034,8.882-0.147,14.288-0.083c2.736,0.011,5.592,0.537,8.439,1.383
						c2.858,0.841,5.673,2.195,8.286,3.967c2.61,1.772,4.925,3.856,6.808,6.166c1.866,2.322,3.359,4.795,4.481,7.29
						c0.268,0.628,0.491,1.267,0.732,1.886c0.118,0.312,0.235,0.621,0.351,0.927c0.088,0.316,0.176,0.63,0.263,0.942
						c0.173,0.623,0.344,1.236,0.512,1.842c0.111,0.616,0.221,1.225,0.329,1.821c0.417,2.385,0.632,4.579,0.913,6.598
						c0.518,4.028,0.916,7.293,1.164,9.553C334.132,354.577,334.23,355.833,334.147,355.844z"/>
				</g>
			</g>
		</g>
		<g>
			<path fill="#455A64" d="M327.106,468.742h-1.165c0-19.328-15.724-35.052-35.052-35.052c-19.327,0-35.051,15.724-35.051,35.052
				h-1.165c0-19.971,16.247-36.218,36.216-36.218C310.859,432.524,327.106,448.771,327.106,468.742z"/>
		</g>
		<g>
			<circle fill="#263238" cx="255.255" cy="470.541" r="5.43"/>
		</g>
		<g>
			<circle fill="#263238" cx="326.795" cy="469.792" r="5.43"/>
		</g>
		<g>
			<g>
				<path fill="#455A64" d="M326.756,459.8c0,0.167-15.76,0.304-35.196,0.304c-19.443,0-35.199-0.137-35.199-0.304
					c0-0.168,15.756-0.304,35.199-0.304C310.996,459.497,326.756,459.632,326.756,459.8z"/>
			</g>
		</g>
	</g>
	<g>
		<g>
			<g>
				<g>
					<path fill="#7DB800" d="M573.056,333.218c-6.038,0.971-8.738,8.392-8.21,14.484c0.527,6.093,3.032,12.05,2.363,18.129
						c-0.852,7.72-6.686,14.245-7.365,21.981c-0.801,9.125,5.65,17.217,7.576,26.172c0.938,4.356,0.808,8.965,2.43,13.115
						c2.735,6.999,10.756,11.492,18.153,10.171c7.397-1.32,13.366-8.313,13.51-15.827c0.134-7.006-4.189-13.604-3.664-20.592
						c0.388-5.165,3.416-10.06,2.768-15.197c-0.771-6.115-6.437-10.457-8.438-16.286c-1.999-5.831-0.078-12.256-0.768-18.382
						C590.173,339.998,584.08,332.336,573.056,333.218"/>
				</g>
			</g>
		</g>
	</g>
	<g>
		<g>
			<g>
				<g>
					<path fill="#E8505B" d="M542.222,386.427c-1.027,10.183,3.476,22.162,8.712,30.955s13.354,15.837,22.795,19.785
						c1.064,0.446,2.391,0.819,3.287,0.093c0.733-0.597,0.825-1.665,0.832-2.611c0.071-10.716-3.416-21.424-9.783-30.043
						C561.698,395.986,552.485,389.507,542.222,386.427"/>
				</g>
			</g>
		</g>
	</g>
	<g>
		<g>
			<g>
				<g>
					<path fill="#6E9904" d="M542.222,386.427c-1.027,10.183,3.476,22.162,8.712,30.955s13.354,15.837,22.795,19.785
						c1.064,0.446,2.391,0.819,3.287,0.093c0.733-0.597,0.825-1.665,0.832-2.611c0.071-10.716-3.416-21.424-9.783-30.043
						C561.698,395.986,552.485,389.507,542.222,386.427"/>
				</g>
			</g>
		</g>
	</g>
	<g>
		<g>
			<g>
				<g>
					<g>
						<path fill="#263238" d="M586.579,458.458c-0.019,0.007-0.117-0.188-0.291-0.567c-0.19-0.439-0.432-0.991-0.726-1.667
							c-0.612-1.454-1.526-3.548-2.692-6.118c-2.324-5.14-5.771-12.139-10.109-19.571c-4.349-7.432-8.756-13.869-12.092-18.417
							c-1.667-2.276-3.042-4.101-4.01-5.348c-0.444-0.588-0.807-1.068-1.096-1.451c-0.246-0.336-0.368-0.519-0.352-0.531
							c0.015-0.012,0.167,0.145,0.442,0.458c0.311,0.365,0.702,0.822,1.181,1.385c1.023,1.205,2.449,2.993,4.161,5.243
							c3.429,4.494,7.902,10.916,12.265,18.369c4.351,7.456,7.749,14.504,9.984,19.697c1.119,2.596,1.978,4.717,2.525,6.199
							c0.254,0.693,0.462,1.259,0.626,1.709C586.534,458.243,586.597,458.452,586.579,458.458z"/>
					</g>
				</g>
			</g>
		</g>
	</g>
	<g>
		<g>
			<g>
				<g>
					<g>
						<path fill="#263238" d="M580.023,361.389c0.021-0.001,0.059,0.335,0.11,0.977c0.051,0.69,0.119,1.626,0.204,2.805
							c0.159,2.489,0.386,6.001,0.663,10.316c0.55,8.714,1.322,20.748,2.258,34.034c0.937,13.291,1.856,25.315,2.532,34.02
							c0.33,4.313,0.598,7.82,0.789,10.31c0.079,1.177,0.144,2.113,0.189,2.804c0.039,0.642,0.049,0.979,0.028,0.982
							c-0.021,0.001-0.069-0.334-0.145-0.971c-0.072-0.689-0.173-1.623-0.298-2.796c-0.235-2.486-0.565-5.988-0.973-10.295
							c-0.779-8.696-1.766-20.719-2.702-34.013c-0.935-13.289-1.642-25.331-2.088-34.051c-0.201-4.32-0.364-7.836-0.48-10.329
							c-0.04-1.182-0.071-2.117-0.096-2.811C580.001,361.729,580.004,361.391,580.023,361.389z"/>
					</g>
				</g>
			</g>
		</g>
	</g>
	<g>
		<g>
			<g>
				<g>
					<path fill="#263238" d="M570.657,443.938h25.501v18.722c0,6.761-5.48,12.24-12.241,12.24l0,0
						c-6.507,0-11.876-5.09-12.225-11.588L570.657,443.938z"/>
				</g>
			</g>
		</g>
	</g>
	<g>
		<g>
			<path fill="#F5F5F5" d="M103.218,463.841c-1.765-1.507-5.704-6.282-2.666-11.837c1.113-2.036,3.478-3.043,5.619-3.941
				c2.141-0.896,4.39-1.677,6.162-3.177c3.34-2.828,4.262-7.527,6.479-11.302c2.545-4.332,7.297-7.577,12.317-7.352
				c5.749,0.261,10.543,4.934,12.716,10.264c2.173,5.328,2.249,11.245,2.293,16.999c0.025,3.183-0.117,6.77-2.464,8.918
				c-2.164,1.981-5.421,2.006-8.354,1.916c-10.472-0.319-20.943-0.641-31.415-0.96"/>
		</g>
		<g>
			<g>
				<path fill="#E0E0E0" d="M163.303,377.852H80.687l14.882,88.331c0.651,3.858,3.455,6.831,7.054,7.864
					c0.095,0.029,0.193,0.052,0.289,0.079c0.247,0.063,0.484,0.146,0.736,0.188c0.545,0.112,1.108,0.17,1.681,0.192
					c0.004,0.027,0.009,0.057,0.013,0.085l0.403-0.063c0.001,0,0.002,0,0.003,0h36.821c0.692,0,1.368-0.071,2.023-0.201
					c4.349-0.669,7.829-4.143,8.358-8.633l7.174-60.861l0.323-2.42h-0.038l2.841-24.103L163.303,377.852z M147.717,434.197h-8.479
					l0.855-25.636h9.823L147.717,434.197z M150.74,408.561h8.117l-3.021,25.636h-7.296L150.74,408.561z M126.519,462.615
					l-0.515-22.271h12.209l-0.743,22.271H126.519z M113.319,440.344h11.864l0.515,22.271h-10.64L113.319,440.344z M114.236,462.615
					h-9.946c-0.946-6.012-2.176-13.826-3.507-22.271h11.714L114.236,462.615z M112.839,434.197l-2.001-25.636h13.609l0.593,25.636
					H112.839z M125.861,434.197l-0.593-25.636h14.005l-0.855,25.636H125.861z M125.125,402.414l-0.549-23.74h15.695l-0.792,23.74
					H125.125z M124.305,402.414h-13.947l-1.854-23.74h15.251L124.305,402.414z M109.536,402.414H94.779
					c-0.522-3.278-1.018-6.382-1.465-9.175c-1.54-9.598-2.118-13.207-2.439-14.565h16.808L109.536,402.414z M110.016,408.561
					l2.001,25.636H99.813c-0.41-2.601-0.826-5.232-1.242-7.865c-0.957-6.051-1.915-12.101-2.815-17.771H110.016z M98.983,434.197
					h-7.972l-4.319-25.636h8.234C96.185,416.484,97.58,425.301,98.983,434.197z M99.954,440.344
					c1.215,7.707,2.411,15.306,3.506,22.271h-7.661l-3.752-22.271H99.954z M138.291,462.615l0.743-22.271h8.156l-1.912,22.271
					H138.291z M140.299,402.414l0.792-23.74h11.391l-2.038,23.74H140.299z M90.093,378.673c0.327,1.716,1.835,11.058,3.855,23.74
					h-8.292l-4-23.74H90.093z M152.486,462.615h-6.385l1.911-22.271h7.099L152.486,462.615z M159.582,402.414h-8.314l2.038-23.74
					h9.074L159.582,402.414z"/>
			</g>
		</g>
	</g>
</g>
</svg>
